<svg width="14" height="14" viewBox="0 0 14 14" fill="none" xmlns="http://www.w3.org/2000/svg">
<path d="M10.0299 7.00005C10.0298 7.59125 9.85507 8.16924 9.52758 8.66145C9.2001 9.15365 8.73448 9.53813 8.18921 9.76659C7.64394 9.99504 7.04332 10.0573 6.46278 9.94554C5.88225 9.83378 5.34767 9.55298 4.92619 9.13841C4.50471 8.72384 4.21512 8.19398 4.09378 7.61537C3.97244 7.03676 4.02476 6.4352 4.24417 5.88622C4.46359 5.33725 4.84031 4.86534 5.32704 4.52977C5.81377 4.19419 6.38879 4.0099 6.97991 4.00005C7.37806 3.99341 7.77355 4.06611 8.14332 4.2139C8.51309 4.36169 8.84973 4.58162 9.13363 4.86086C9.41752 5.14009 9.64298 5.47306 9.79686 5.84033C9.95074 6.20761 10.03 6.60184 10.0299 7.00005V7.00005Z" stroke="#CECECE" stroke-linecap="round" stroke-linejoin="round"/>
<path d="M10.0299 7V8.3C10.0299 11.79 15.4999 8.5 12.6299 3.76C12.052 2.77305 11.2272 1.95349 10.2366 1.3819C9.24594 0.810318 8.12361 0.50639 6.97993 0.5C6.01909 0.502967 5.07087 0.718914 4.2035 1.1323C3.33613 1.54568 2.5712 2.14622 1.96376 2.89068C1.35632 3.63514 0.921478 4.50502 0.69054 5.43769C0.459602 6.37036 0.438309 7.34264 0.628194 8.28452C0.818079 9.22641 1.21442 10.1145 1.78868 10.8848C2.36295 11.6552 3.10086 12.2886 3.9493 12.7396C4.79773 13.1905 5.7356 13.4478 6.69538 13.4928C7.65516 13.5379 8.61299 13.3695 9.49993 13" stroke="#CECECE" stroke-linecap="round" stroke-linejoin="round"/>
</svg>
