<svg width="32" height="32" viewBox="0 0 32 32" fill="none" xmlns="http://www.w3.org/2000/svg">
<path d="M15.6953 31.4531C11.4052 31.4531 10.8994 31.4305 9.22527 31.3572C7.91973 31.3143 6.6311 31.0489 5.41483 30.5724C3.31048 29.7535 1.64649 28.089 0.828356 25.9842C0.370249 24.7635 0.123155 23.4739 0.0976588 22.1703C-1.29931e-08 20.4996 0 19.9521 0 15.6952C0 11.393 0.0226708 10.8907 0.0976588 9.22527C0.123713 7.9235 0.37079 6.63559 0.828356 5.41658C1.6456 3.30912 3.31229 1.64308 5.42007 0.826612C6.63845 0.366587 7.92667 0.118847 9.22876 0.0941709C10.8942 -1.75407e-07 11.4418 0 15.6953 0C20.0201 0 20.5172 0.0226706 22.1652 0.0941709C23.4705 0.119056 24.7622 0.366761 25.9843 0.826612C28.0915 1.644 29.7578 3.30973 30.576 5.41658C31.0418 6.65336 31.2902 7.96139 31.3102 9.28282C31.4079 10.9535 31.4079 11.4993 31.4079 15.7545C31.4079 20.0096 31.3835 20.5677 31.3102 22.2191C31.2842 23.5239 31.0364 24.8148 30.5778 26.0365C29.7574 28.1427 28.091 29.8079 25.9843 30.6265C24.7639 31.0838 23.475 31.3309 22.1721 31.3572C20.5067 31.4531 19.9609 31.4531 15.6953 31.4531ZM15.636 2.76061C11.3703 2.76061 10.9273 2.78153 9.26189 2.85652C8.26785 2.86971 7.2834 3.05315 6.35131 3.39888C4.97495 3.92555 3.88583 5.01025 3.35354 6.38445C3.00514 7.32668 2.82166 8.32189 2.81118 9.32642C2.71875 11.0163 2.71875 11.4592 2.71875 15.6952C2.71875 19.8806 2.73445 20.388 2.81118 22.0674C2.8268 23.0618 3.01016 24.0464 3.35354 24.9797C3.88661 26.3531 4.97554 27.4369 6.35131 27.9636C7.28277 28.3116 8.26761 28.4951 9.26189 28.5059C10.95 28.6036 11.3947 28.6036 15.636 28.6036C19.9138 28.6036 20.3567 28.5827 22.0082 28.5059C23.0029 28.4939 23.9881 28.3104 24.9205 27.9636C26.2885 27.4324 27.3706 26.351 27.9026 24.9832C28.2504 24.0403 28.4336 23.0445 28.445 22.0395H28.4642C28.5391 20.3723 28.5391 19.9276 28.5391 15.6673C28.5391 11.4069 28.52 10.9587 28.445 9.29329C28.4293 8.30006 28.2458 7.3166 27.9026 6.38445C27.3718 5.01475 26.2895 3.93129 24.9205 3.39888C23.9882 3.0514 23.0029 2.86791 22.0082 2.85652C20.3218 2.76061 19.8806 2.76061 15.636 2.76061ZM15.6953 23.7503C12.434 23.7524 9.49282 21.7896 8.24323 18.7775C6.99361 15.7653 7.68176 12.2968 9.98672 9.98992C12.2917 7.68296 15.7594 6.99182 18.7727 8.23881C21.786 9.48581 23.7512 12.4253 23.7521 15.6865C23.7472 20.1353 20.144 23.7416 15.6953 23.7503ZM15.6953 10.4512C12.8058 10.4512 10.4634 12.7937 10.4634 15.683C10.4634 18.5724 12.8058 20.9147 15.6953 20.9147C18.5846 20.9147 20.927 18.5724 20.927 15.683C20.9202 12.7963 18.5818 10.458 15.6953 10.4512ZM24.066 9.20785C23.0291 9.204 22.1911 8.36132 22.1931 7.32443C22.195 6.28754 23.0361 5.44799 24.073 5.44799C25.1097 5.44799 25.9508 6.28752 25.9529 7.32441C25.9533 7.82469 25.7545 8.30454 25.4005 8.65794C25.0464 9.01137 24.5662 9.20923 24.066 9.20785Z" fill="#211F22"/>
</svg>
