<svg width="25" height="25" viewBox="0 0 25 25" fill="none" xmlns="http://www.w3.org/2000/svg">
<path d="M19.6301 10.5097H2.86889C2.63083 10.5044 2.39474 10.5575 2.1781 10.665C1.96146 10.7726 1.76983 10.9317 1.6174 11.1308C1.46497 11.3298 1.35564 11.5637 1.29752 11.8149C1.2394 12.0662 1.23398 12.3285 1.28165 12.5824L3.02761 22.0822C3.10182 22.4782 3.30129 22.8333 3.59131 23.0858C3.88132 23.3383 4.24352 23.4721 4.61485 23.464H17.8842C18.2555 23.4721 18.6177 23.3383 18.9077 23.0858C19.1977 22.8333 19.3972 22.4782 19.4714 22.0822L21.2174 12.5824C21.265 12.3285 21.2596 12.0662 21.2015 11.8149C21.1434 11.5637 21.0341 11.3298 20.8816 11.1308C20.7292 10.9317 20.5376 10.7726 20.3209 10.665C20.1043 10.5575 19.8682 10.5044 19.6301 10.5097Z" stroke="#FF5C2C" stroke-width="2" stroke-linecap="round" stroke-linejoin="round"/>
<path d="M14.4241 4.46429L17.5986 10.5096" stroke="#FF5C2C" stroke-width="2" stroke-linecap="round" stroke-linejoin="round"/>
<path d="M4.90051 10.5096L8.07499 4.46429" stroke="#FF5C2C" stroke-width="2" stroke-linecap="round" stroke-linejoin="round"/>
</svg>
