<svg width="404" height="102" viewBox="0 0 404 102" fill="none" xmlns="http://www.w3.org/2000/svg">
<path d="M86.14 83.2505C86.14 85.7812 85.6533 88.1172 84.68 90.2585C83.804 92.3998 82.5387 94.2978 80.884 95.9525C79.3267 97.5098 77.4287 98.7752 75.19 99.7485C73.0487 100.624 70.7613 101.062 68.328 101.062H21.024C18.5907 101.062 16.2547 100.624 14.016 99.7485C11.8747 98.7752 9.97667 97.5098 8.322 95.9525C6.76467 94.2978 5.49933 92.3998 4.526 90.2585C3.65 88.0198 3.212 85.6838 3.212 83.2505V78.5785C3.212 76.6318 3.89333 74.9772 5.256 73.6145C6.716 72.1545 8.41933 71.4245 10.366 71.4245H31.682C33.6287 71.4245 35.2833 72.1545 36.646 73.6145C38.0087 74.9772 38.69 76.6318 38.69 78.5785V83.2505H50.662V65.5845H21.024C18.5907 65.5845 16.2547 65.1465 14.016 64.2705C11.8747 63.2972 9.97667 62.0318 8.322 60.4745C6.76467 58.8198 5.49933 56.9218 4.526 54.7805C3.65 52.5418 3.212 50.2058 3.212 47.7725V18.1345C3.212 15.7012 3.65 13.4138 4.526 11.2725C5.49933 9.13116 6.76467 7.28183 8.322 5.72449C9.97667 4.06983 11.8747 2.8045 14.016 1.9285C16.2547 0.955165 18.5907 0.468498 21.024 0.468498H68.328C70.7613 0.468498 73.0487 0.955165 75.19 1.9285C77.4287 2.8045 79.3267 4.02116 80.884 5.57849C82.5387 7.13583 83.804 9.03383 84.68 11.2725C85.6533 13.4138 86.14 15.7012 86.14 18.1345V24.1205C86.14 26.6512 85.6533 28.9872 84.68 31.1285C83.804 33.2698 82.5387 35.1192 80.884 36.6765C79.3267 38.2338 77.4287 39.4992 75.19 40.4725C73.0487 41.3485 70.7613 41.7865 68.328 41.7865H50.662H38.69V47.7725H68.328C70.7613 47.7725 73.0487 48.2592 75.19 49.2325C77.4287 50.1085 79.3267 51.3738 80.884 53.0285C82.5387 54.5858 83.804 56.4838 84.68 58.7225C85.6533 60.8638 86.14 63.1512 86.14 65.5845V83.2505ZM68.328 52.1525C68.328 51.1792 67.8413 50.6925 66.868 50.6925H45.552C44.5787 50.6925 44.092 51.1792 44.092 52.1525C44.092 53.1258 44.5787 53.6125 45.552 53.6125H66.868C67.8413 53.6125 68.328 53.1258 68.328 52.1525ZM64.532 4.84849C64.532 3.87516 64.0453 3.3885 63.072 3.3885H21.024C18.98 3.3885 17.0333 3.77783 15.184 4.5565C13.432 5.33516 11.8747 6.40582 10.512 7.76849C9.24667 9.03383 8.22467 10.5912 7.446 12.4405C6.66733 14.1925 6.278 16.0905 6.278 18.1345V46.3125C6.278 47.2858 6.76467 47.7725 7.738 47.7725C8.71133 47.7725 9.198 47.2858 9.198 46.3125V18.1345C9.198 14.9225 10.366 12.1485 12.702 9.8125C15.038 7.4765 17.812 6.30849 21.024 6.30849H63.072C64.0453 6.30849 64.532 5.82183 64.532 4.84849ZM56.502 89.2365V69.3805C56.502 68.4072 56.0153 67.9205 55.042 67.9205C54.0687 67.9205 53.582 68.4072 53.582 69.3805V86.3165H41.61C40.6367 86.3165 40.15 86.8032 40.15 87.7765C40.15 88.7498 40.6367 89.2365 41.61 89.2365H56.502ZM42.194 52.1525C42.194 51.1792 41.7073 50.6925 40.734 50.6925C39.7607 50.6925 39.274 51.1792 39.274 52.1525C39.274 53.1258 39.7607 53.6125 40.734 53.6125C41.7073 53.6125 42.194 53.1258 42.194 52.1525ZM31.39 75.9505C31.39 74.9772 30.9033 74.4905 29.93 74.4905H10.366C9.198 74.4905 8.22467 74.8798 7.446 75.6585C6.66733 76.4372 6.278 77.4105 6.278 78.5785V83.2505C6.278 84.2238 6.76467 84.7105 7.738 84.7105C8.614 84.7105 9.10067 84.3212 9.198 83.5425C9.29533 82.7638 9.29533 81.9365 9.198 81.0605C9.10067 80.1845 9.052 79.3572 9.052 78.5785C9.14933 77.7998 9.58733 77.4105 10.366 77.4105H29.93C30.9033 77.4105 31.39 76.9238 31.39 75.9505ZM9.928 87.6305C9.928 87.2412 9.782 86.9005 9.49 86.6085C9.29533 86.2192 8.95467 86.0245 8.468 86.0245C7.49467 86.0245 7.008 86.5598 7.008 87.6305C7.008 88.6038 7.49467 89.0905 8.468 89.0905C9.44133 89.0905 9.928 88.6038 9.928 87.6305ZM9.198 52.1525C9.198 51.1792 8.71133 50.6925 7.738 50.6925C6.76467 50.6925 6.278 51.1792 6.278 52.1525C6.278 53.2232 6.76467 53.7585 7.738 53.7585C8.22467 53.7585 8.56533 53.6125 8.76 53.3205C9.052 52.9312 9.198 52.5418 9.198 52.1525Z" fill="black"/>
<path d="M176.848 89.2365C176.848 92.4485 175.68 95.2225 173.344 97.5585C171.008 99.8945 168.234 101.062 165.022 101.062H153.196C149.984 101.062 147.21 99.8945 144.874 97.5585C142.538 95.2225 141.37 92.4485 141.37 89.2365V71.4245H129.544V89.2365C129.544 92.4485 128.376 95.2225 126.04 97.5585C123.704 99.8945 120.93 101.062 117.718 101.062H105.892C102.68 101.062 99.906 99.8945 97.57 97.5585C95.234 95.2225 94.066 92.4485 94.066 89.2365V12.2945C94.066 8.98516 95.1853 6.21116 97.424 3.9725C99.76 1.6365 102.583 0.468498 105.892 0.468498H159.182C161.615 0.468498 163.903 0.955165 166.044 1.9285C168.185 2.8045 170.035 4.06983 171.592 5.72449C173.247 7.28183 174.512 9.13116 175.388 11.2725C176.361 13.4138 176.848 15.7012 176.848 18.1345V47.7725C176.848 50.2058 176.361 52.5418 175.388 54.7805C174.512 56.9218 173.247 58.8198 171.592 60.4745C170.035 62.0318 168.185 63.2972 166.044 64.2705C163.903 65.1465 161.615 65.5845 159.182 65.5845C161.615 65.5845 163.903 66.0712 166.044 67.0445C168.185 67.9205 170.035 69.1858 171.592 70.8405C173.247 72.3978 174.512 74.2472 175.388 76.3885C176.361 78.5298 176.848 80.8172 176.848 83.2505V89.2365ZM154.656 96.6825C154.656 96.2932 154.51 95.9525 154.218 95.6605C154.023 95.2712 153.683 95.0765 153.196 95.0765C151.541 95.0765 150.13 94.5412 148.962 93.4705C147.794 92.3025 147.21 90.8912 147.21 89.2365V71.4245C147.21 70.4512 146.723 69.9645 145.75 69.9645C144.777 69.9645 144.29 70.4512 144.29 71.4245V89.2365C144.29 91.6698 145.166 93.7625 146.918 95.5145C148.67 97.2665 150.763 98.1425 153.196 98.1425C154.169 98.1425 154.656 97.6558 154.656 96.6825ZM147.21 59.5985V41.7865C147.21 40.8132 146.723 40.3265 145.75 40.3265C144.777 40.3265 144.29 40.8132 144.29 41.7865V56.6785H134.8C133.827 56.6785 133.34 57.1652 133.34 58.1385C133.34 59.1118 133.827 59.5985 134.8 59.5985H147.21ZM142.83 4.84849C142.83 3.87516 142.343 3.3885 141.37 3.3885H105.892C103.361 3.3885 101.22 4.2645 99.468 6.0165C97.8133 7.67117 96.986 9.76383 96.986 12.2945V66.3145C96.986 67.3852 97.4727 67.9205 98.446 67.9205C98.9327 67.9205 99.2733 67.7745 99.468 67.4825C99.76 67.0932 99.906 66.7038 99.906 66.3145V12.2945C99.906 10.6398 100.49 9.2285 101.658 8.0605C102.826 6.89249 104.237 6.30849 105.892 6.30849H141.37C142.343 6.30849 142.83 5.82183 142.83 4.84849ZM141.37 53.7585V41.7865H129.544V53.7585H141.37ZM132.318 58.1385C132.318 57.1652 131.831 56.6785 130.858 56.6785C129.885 56.6785 129.398 57.1652 129.398 58.1385C129.398 59.1118 129.885 59.5985 130.858 59.5985C131.831 59.5985 132.318 59.1118 132.318 58.1385ZM99.906 72.7385C99.906 71.7652 99.4193 71.2785 98.446 71.2785C97.4727 71.2785 96.986 71.7652 96.986 72.7385C96.986 73.8092 97.4727 74.3445 98.446 74.3445C98.9327 74.3445 99.2733 74.1985 99.468 73.9065C99.76 73.5172 99.906 73.1278 99.906 72.7385Z" fill="black"/>
<path d="M230 22.8125C230 23.8542 229.792 24.8333 229.375 25.75C229 26.6667 228.458 27.4792 227.75 28.1875C227.083 28.8542 226.271 29.3958 225.313 29.8125C224.396 30.1875 223.417 30.375 222.375 30.375H214.813H209.75V35.4375V38C209.75 39.375 209.25 40.5625 208.25 41.5625C207.25 42.5625 206.063 43.0625 204.688 43.0625H199.563C198.188 43.0625 197 42.5625 196 41.5625C195 40.5625 194.5 39.375 194.5 38V5.0625C194.5 3.6875 195 2.5 196 1.5C197 0.499999 198.188 -6.55651e-07 199.563 -6.55651e-07H222.375C223.417 -6.55651e-07 224.396 0.208332 225.313 0.624999C226.271 0.999999 227.083 1.54166 227.75 2.25C228.458 2.91666 229 3.70833 229.375 4.625C229.792 5.54166 230 6.52083 230 7.5625V22.8125ZM218.375 1.875C218.375 1.45833 218.167 1.25 217.75 1.25H199.563C198.479 1.25 197.583 1.625 196.875 2.375C196.167 3.125 195.813 4.02083 195.813 5.0625V33.3125C195.813 33.7292 196.021 33.9375 196.438 33.9375C196.854 33.9375 197.063 33.7292 197.063 33.3125V5.0625C197.063 4.35417 197.292 3.75 197.75 3.25C198.25 2.75 198.854 2.5 199.563 2.5H217.75C218.167 2.5 218.375 2.29166 218.375 1.875ZM217.313 25.3125V17.6875C217.313 17.2708 217.104 17.0625 216.688 17.0625C216.271 17.0625 216.063 17.2708 216.063 17.6875V24.0625H212C211.583 24.0625 211.375 24.2708 211.375 24.6875C211.375 25.1042 211.583 25.3125 212 25.3125H217.313ZM214.813 22.8125V17.6875H209.75V22.8125H214.813ZM210.938 24.6875C210.938 24.2708 210.729 24.0625 210.313 24.0625C209.896 24.0625 209.688 24.2708 209.688 24.6875C209.688 25.1042 209.896 25.3125 210.313 25.3125C210.729 25.3125 210.938 25.1042 210.938 24.6875ZM197.063 35.5625C197.063 35.1458 196.854 34.9375 196.438 34.9375C196.021 34.9375 195.813 35.1458 195.813 35.5625C195.813 35.9792 196.021 36.1875 196.438 36.1875C196.854 36.1875 197.063 35.9792 197.063 35.5625ZM273.083 38C273.083 39.375 272.583 40.5625 271.583 41.5625C270.583 42.5625 269.396 43.0625 268.021 43.0625H262.958C261.583 43.0625 260.396 42.5625 259.396 41.5625C258.396 40.5625 257.896 39.375 257.896 38V30.375H252.833V38C252.833 39.4167 252.312 40.625 251.271 41.625C250.271 42.5833 249.083 43.0625 247.708 43.0625H242.646C241.271 43.0625 240.083 42.5625 239.083 41.5625C238.083 40.5625 237.583 39.375 237.583 38V5.0625C237.583 3.64583 238.062 2.45833 239.021 1.5C240.021 0.499999 241.229 -6.55651e-07 242.646 -6.55651e-07H247.708C249.125 -6.55651e-07 250.333 0.499999 251.333 1.5C252.333 2.45833 252.833 3.64583 252.833 5.0625V22.8125H257.896V5.0625C257.896 3.64583 258.375 2.45833 259.333 1.5C260.333 0.499999 261.541 -6.55651e-07 262.958 -6.55651e-07H268.021C269.396 -6.55651e-07 270.583 0.499999 271.583 1.5C272.583 2.5 273.083 3.6875 273.083 5.0625V38ZM267.646 1.875C267.646 1.66666 267.562 1.52083 267.396 1.4375C267.271 1.3125 267.125 1.25 266.958 1.25H262.958C261.916 1.25 261.021 1.625 260.271 2.375C259.521 3.125 259.146 4.02083 259.146 5.0625V24.0625H256.146C255.729 24.0625 255.521 24.2708 255.521 24.6875C255.521 25.1042 255.729 25.3125 256.146 25.3125H260.396V5.0625C260.396 4.35417 260.646 3.75 261.146 3.25C261.646 2.75 262.25 2.5 262.958 2.5H266.958C267.416 2.5 267.646 2.29166 267.646 1.875ZM263.583 41.1875C263.583 41.0208 263.521 40.875 263.396 40.75C263.312 40.5833 263.166 40.5 262.958 40.5C262.25 40.5 261.646 40.2708 261.146 39.8125C260.646 39.3125 260.396 38.7083 260.396 38V30.375C260.396 29.9583 260.187 29.75 259.771 29.75C259.354 29.75 259.146 29.9583 259.146 30.375V38C259.146 39.0417 259.521 39.9375 260.271 40.6875C261.021 41.4375 261.916 41.8125 262.958 41.8125C263.375 41.8125 263.583 41.6042 263.583 41.1875ZM254.021 24.6875C254.021 24.2708 253.812 24.0625 253.396 24.0625C252.979 24.0625 252.771 24.2708 252.771 24.6875C252.771 25.1042 252.979 25.3125 253.396 25.3125C253.812 25.3125 254.021 25.1042 254.021 24.6875ZM247.958 1.875C247.958 1.45833 247.75 1.25 247.333 1.25H242.646C241.604 1.25 240.708 1.625 239.958 2.375C239.25 3.125 238.896 4.02083 238.896 5.0625V35C238.896 35.4167 239.104 35.625 239.521 35.625C239.937 35.625 240.146 35.4167 240.146 35V5.0625C240.146 4.35417 240.375 3.75 240.833 3.25C241.333 2.75 241.937 2.5 242.646 2.5H245.208H247.333C247.75 2.5 247.958 2.29166 247.958 1.875ZM240.146 37.375C240.146 37.2083 240.083 37.0625 239.958 36.9375C239.875 36.7708 239.729 36.6875 239.521 36.6875C239.104 36.6875 238.896 36.9167 238.896 37.375C238.896 37.7917 239.104 38 239.521 38C239.937 38 240.146 37.7917 240.146 37.375ZM316.105 35.4375C316.105 36.4792 315.897 37.4792 315.48 38.4375C315.105 39.3542 314.563 40.1667 313.855 40.875C313.188 41.5417 312.397 42.0833 311.48 42.5C310.563 42.875 309.584 43.0625 308.542 43.0625H288.292C287.251 43.0625 286.251 42.875 285.292 42.5C284.376 42.0833 283.563 41.5417 282.855 40.875C282.188 40.1667 281.647 39.3542 281.23 38.4375C280.855 37.4792 280.667 36.4792 280.667 35.4375V7.5625C280.667 6.52083 280.855 5.54166 281.23 4.625C281.647 3.66667 282.188 2.85417 282.855 2.1875C283.563 1.52083 284.376 0.999999 285.292 0.624999C286.251 0.208332 287.251 -6.55651e-07 288.292 -6.55651e-07H308.542C309.584 -6.55651e-07 310.563 0.208332 311.48 0.624999C312.397 0.999999 313.188 1.54166 313.855 2.25C314.563 2.91666 315.105 3.70833 315.48 4.625C315.897 5.54166 316.105 6.52083 316.105 7.5625V35.4375ZM306.917 1.875C306.917 1.45833 306.709 1.25 306.292 1.25H288.292C287.417 1.25 286.584 1.41667 285.792 1.75C285.042 2.08333 284.376 2.54166 283.792 3.125C283.209 3.66666 282.751 4.33333 282.417 5.125C282.084 5.875 281.917 6.6875 281.917 7.5625V24.6875C281.917 25.1042 282.126 25.3125 282.542 25.3125C282.959 25.3125 283.167 25.1042 283.167 24.6875V7.5625C283.167 6.14583 283.667 4.95833 284.667 4C285.667 3 286.876 2.5 288.292 2.5H306.292C306.709 2.5 306.917 2.29166 306.917 1.875ZM303.48 38V18.375C303.48 17.9583 303.251 17.75 302.792 17.75C302.376 17.75 302.167 17.9583 302.167 18.375V36.75H298.105C297.688 36.75 297.48 36.9583 297.48 37.375C297.48 37.7917 297.688 38 298.105 38H303.48ZM300.917 35.4375V17.75H295.855V35.4375H300.917ZM297.105 37.375C297.105 36.9583 296.876 36.75 296.417 36.75C296.001 36.75 295.792 36.9583 295.792 37.375C295.792 37.7917 296.001 38 296.417 38C296.584 38 296.73 37.9583 296.855 37.875C297.022 37.75 297.105 37.5833 297.105 37.375ZM283.167 27.1875C283.167 26.7708 282.959 26.5625 282.542 26.5625C282.126 26.5625 281.917 26.7708 281.917 27.1875C281.917 27.6042 282.126 27.8125 282.542 27.8125C282.959 27.8125 283.167 27.6042 283.167 27.1875ZM353.566 5.0625V12.6875C353.566 14.0625 353.066 15.25 352.066 16.25C351.066 17.25 349.878 17.75 348.503 17.75H345.941V38C345.941 39.4167 345.441 40.625 344.441 41.625C343.483 42.5833 342.295 43.0625 340.878 43.0625H335.878C334.462 43.0625 333.253 42.5833 332.253 41.625C331.253 40.625 330.753 39.4167 330.753 38V17.75H328.253C326.878 17.75 325.67 17.2708 324.628 16.3125C323.628 15.3125 323.128 14.1042 323.128 12.6875V5.0625C323.128 3.64583 323.628 2.45833 324.628 1.5C325.628 0.499999 326.837 -6.55651e-07 328.253 -6.55651e-07H348.503C349.92 -6.55651e-07 351.108 0.499999 352.066 1.5C353.066 2.45833 353.566 3.64583 353.566 5.0625ZM346.941 1.875C346.941 1.45833 346.733 1.25 346.316 1.25H328.253C327.17 1.25 326.253 1.625 325.503 2.375C324.795 3.08333 324.441 3.97917 324.441 5.0625V11.125C324.441 11.5417 324.649 11.75 325.066 11.75C325.483 11.75 325.691 11.5417 325.691 11.125V5.0625C325.691 4.35417 325.941 3.75 326.441 3.25C326.941 2.75 327.545 2.5 328.253 2.5H346.316C346.733 2.5 346.941 2.29166 346.941 1.875ZM333.316 36.6875V19.25C333.316 18.8333 333.108 18.625 332.691 18.625C332.274 18.625 332.066 18.8333 332.066 19.25V36.6875C332.066 37.1458 332.274 37.375 332.691 37.375C332.899 37.375 333.045 37.3125 333.128 37.1875C333.253 37.0208 333.316 36.8542 333.316 36.6875ZM333.316 38.6875C333.316 38.2708 333.108 38.0625 332.691 38.0625C332.274 38.0625 332.066 38.2708 332.066 38.6875C332.066 39.1042 332.274 39.3125 332.691 39.3125C333.108 39.3125 333.316 39.1042 333.316 38.6875ZM325.691 13.125C325.691 12.9583 325.628 12.8125 325.503 12.6875C325.42 12.5208 325.274 12.4375 325.066 12.4375C324.649 12.4375 324.441 12.6667 324.441 13.125C324.441 13.5417 324.649 13.75 325.066 13.75C325.483 13.75 325.691 13.5417 325.691 13.125ZM395.99 35.4375C395.99 36.4792 395.782 37.4792 395.365 38.4375C394.99 39.3542 394.449 40.1667 393.74 40.875C393.074 41.5417 392.282 42.0833 391.365 42.5C390.449 42.875 389.469 43.0625 388.428 43.0625H368.178C367.136 43.0625 366.136 42.875 365.178 42.5C364.261 42.0833 363.449 41.5417 362.74 40.875C362.074 40.1667 361.532 39.3542 361.115 38.4375C360.74 37.4792 360.553 36.4792 360.553 35.4375V7.5625C360.553 6.52083 360.74 5.54166 361.115 4.625C361.532 3.66667 362.074 2.85417 362.74 2.1875C363.449 1.52083 364.261 0.999999 365.178 0.624999C366.136 0.208332 367.136 -6.55651e-07 368.178 -6.55651e-07H388.428C389.469 -6.55651e-07 390.449 0.208332 391.365 0.624999C392.282 0.999999 393.074 1.54166 393.74 2.25C394.449 2.91666 394.99 3.70833 395.365 4.625C395.782 5.54166 395.99 6.52083 395.99 7.5625V35.4375ZM386.803 1.875C386.803 1.45833 386.594 1.25 386.178 1.25H368.178C367.303 1.25 366.469 1.41667 365.678 1.75C364.928 2.08333 364.261 2.54166 363.678 3.125C363.094 3.66666 362.636 4.33333 362.303 5.125C361.969 5.875 361.803 6.6875 361.803 7.5625V24.6875C361.803 25.1042 362.011 25.3125 362.428 25.3125C362.844 25.3125 363.053 25.1042 363.053 24.6875V7.5625C363.053 6.14583 363.553 4.95833 364.553 4C365.553 3 366.761 2.5 368.178 2.5H386.178C386.594 2.5 386.803 2.29166 386.803 1.875ZM383.365 38V18.375C383.365 17.9583 383.136 17.75 382.678 17.75C382.261 17.75 382.053 17.9583 382.053 18.375V36.75H377.99C377.574 36.75 377.365 36.9583 377.365 37.375C377.365 37.7917 377.574 38 377.99 38H383.365ZM380.803 35.4375V17.75H375.74V35.4375H380.803ZM376.99 37.375C376.99 36.9583 376.761 36.75 376.303 36.75C375.886 36.75 375.678 36.9583 375.678 37.375C375.678 37.7917 375.886 38 376.303 38C376.469 38 376.615 37.9583 376.74 37.875C376.907 37.75 376.99 37.5833 376.99 37.375ZM363.053 27.1875C363.053 26.7708 362.844 26.5625 362.428 26.5625C362.011 26.5625 361.803 26.7708 361.803 27.1875C361.803 27.6042 362.011 27.8125 362.428 27.8125C362.844 27.8125 363.053 27.6042 363.053 27.1875Z" fill="black"/>
<path d="M222.563 97.1875C222.563 98.2292 222.188 99.125 221.438 99.875C220.688 100.625 219.792 101 218.75 101H199.75C198.333 101 197.125 100.521 196.125 99.5625C195.125 98.5625 194.625 97.3542 194.625 95.9375V63C194.625 61.5833 195.125 60.3958 196.125 59.4375C197.125 58.4375 198.333 57.9375 199.75 57.9375H204.813C206.229 57.9375 207.417 58.4375 208.375 59.4375C209.375 60.3958 209.875 61.5833 209.875 63V93.375H217.438H218.75C219.792 93.375 220.688 93.75 221.438 94.5C222.188 95.25 222.563 96.1458 222.563 97.1875ZM218.063 95.3125C218.063 94.8958 217.854 94.6875 217.438 94.6875H211C210.542 94.6875 210.313 94.8958 210.313 95.3125C210.313 95.5208 210.375 95.6875 210.5 95.8125C210.667 95.8958 210.833 95.9375 211 95.9375H217.438C217.854 95.9375 218.063 95.7292 218.063 95.3125ZM203.625 59.8125C203.625 59.3958 203.417 59.1875 203 59.1875H199.75C198.667 59.1875 197.75 59.5625 197 60.3125C196.292 61.0208 195.938 61.9167 195.938 63V89.5C195.938 89.9167 196.146 90.125 196.563 90.125C196.979 90.125 197.188 89.9167 197.188 89.5V63C197.188 62.2917 197.438 61.6875 197.938 61.1875C198.438 60.6875 199.042 60.4375 199.75 60.4375H203C203.417 60.4375 203.625 60.2292 203.625 59.8125ZM197.188 91.8125C197.188 91.6458 197.125 91.5 197 91.375C196.917 91.2083 196.771 91.125 196.563 91.125C196.146 91.125 195.938 91.3542 195.938 91.8125C195.938 92.2292 196.146 92.4375 196.563 92.4375C196.979 92.4375 197.188 92.2292 197.188 91.8125ZM265.394 65.625V96C265.394 97.4167 264.894 98.625 263.894 99.625C262.936 100.583 261.748 101.062 260.332 101.062H255.269C253.852 101.062 252.644 100.583 251.644 99.625C250.686 98.625 250.207 97.4167 250.207 96V88.4375H245.144V96C245.144 97.4167 244.644 98.625 243.644 99.625C242.644 100.583 241.436 101.062 240.019 101.062H235.019C233.602 101.062 232.394 100.583 231.394 99.625C230.436 98.625 229.957 97.4167 229.957 96V65.625C229.957 64.5833 230.144 63.6042 230.519 62.6875C230.936 61.7292 231.477 60.9167 232.144 60.25C232.852 59.5417 233.665 59 234.582 58.625C235.498 58.2083 236.477 58 237.519 58H257.769C258.811 58 259.79 58.2083 260.707 58.625C261.665 59 262.477 59.5417 263.144 60.25C263.852 60.9167 264.394 61.7292 264.769 62.6875C265.186 63.6042 265.394 64.5833 265.394 65.625ZM256.207 59.875C256.207 59.6667 256.123 59.5208 255.957 59.4375C255.832 59.3125 255.686 59.25 255.519 59.25H237.519C236.644 59.25 235.811 59.4167 235.019 59.75C234.269 60.0833 233.602 60.5417 233.019 61.125C232.477 61.7083 232.04 62.3958 231.707 63.1875C231.373 63.9375 231.207 64.75 231.207 65.625V92.8125C231.207 92.9792 231.248 93.1458 231.332 93.3125C231.457 93.4375 231.623 93.5 231.832 93.5C232.248 93.5 232.457 93.2708 232.457 92.8125V65.625C232.457 64.2083 232.936 63 233.894 62C234.894 61 236.102 60.5 237.519 60.5H255.519C255.977 60.5 256.207 60.2917 256.207 59.875ZM255.894 99.1875C255.894 98.7292 255.686 98.5 255.269 98.5C254.561 98.5 253.957 98.2708 253.457 97.8125C252.998 97.3125 252.769 96.7083 252.769 96V88.4375C252.769 87.9792 252.54 87.75 252.082 87.75C251.873 87.75 251.707 87.8333 251.582 88C251.498 88.125 251.457 88.2708 251.457 88.4375V96C251.457 97.0833 251.811 98 252.519 98.75C253.269 99.4583 254.186 99.8125 255.269 99.8125C255.686 99.8125 255.894 99.6042 255.894 99.1875ZM252.769 83.3125V75.75C252.769 75.3333 252.54 75.125 252.082 75.125C251.665 75.125 251.457 75.3333 251.457 75.75V82.0625H247.394C246.977 82.0625 246.769 82.2708 246.769 82.6875C246.769 83.1042 246.977 83.3125 247.394 83.3125H252.769ZM250.207 80.8125V75.75H245.144V80.8125H250.207ZM246.332 82.6875C246.332 82.2708 246.123 82.0625 245.707 82.0625C245.29 82.0625 245.082 82.2708 245.082 82.6875C245.082 83.1042 245.29 83.3125 245.707 83.3125C246.123 83.3125 246.332 83.1042 246.332 82.6875ZM232.457 95.375C232.457 94.9583 232.248 94.75 231.832 94.75C231.415 94.75 231.207 94.9583 231.207 95.375C231.207 95.7917 231.415 96 231.832 96C232.248 96 232.457 95.7917 232.457 95.375ZM308.91 65.5625V78.25C308.91 79.2917 308.702 80.2917 308.285 81.25C307.91 82.1667 307.368 82.9792 306.66 83.6875C305.993 84.3542 305.181 84.8958 304.223 85.3125C303.306 85.6875 302.327 85.875 301.285 85.875C302.327 85.875 303.306 86.0833 304.223 86.5C305.181 86.875 305.993 87.3958 306.66 88.0625C307.368 88.7292 307.91 89.5417 308.285 90.5C308.702 91.4167 308.91 92.3958 308.91 93.4375C308.91 94.4792 308.702 95.4792 308.285 96.4375C307.91 97.3542 307.368 98.1667 306.66 98.875C305.993 99.5417 305.181 100.083 304.223 100.5C303.306 100.875 302.327 101.062 301.285 101.062H278.535C277.16 101.062 275.973 100.562 274.973 99.5625C273.973 98.5625 273.473 97.375 273.473 96V63.0625C273.473 61.6458 273.952 60.4583 274.91 59.5C275.91 58.5 277.118 58 278.535 58H301.285C302.327 58 303.306 58.2083 304.223 58.625C305.181 59 305.993 59.5208 306.66 60.1875C307.368 60.8542 307.91 61.6667 308.285 62.625C308.702 63.5417 308.91 64.5208 308.91 65.5625ZM296.223 96V88.375C296.223 87.9583 296.014 87.75 295.598 87.75C295.181 87.75 294.973 87.9583 294.973 88.375V94.6875H290.91C290.493 94.6875 290.285 94.8958 290.285 95.3125C290.285 95.4792 290.327 95.6458 290.41 95.8125C290.535 95.9375 290.702 96 290.91 96H296.223ZM296.223 83.3125V75.6875C296.223 75.2708 296.014 75.0625 295.598 75.0625C295.181 75.0625 294.973 75.2708 294.973 75.6875V82.0625H290.91C290.493 82.0625 290.285 82.2708 290.285 82.6875C290.285 83.1042 290.493 83.3125 290.91 83.3125H296.223ZM293.723 93.4375V88.375H288.66V93.4375H293.723ZM293.723 80.8125V75.6875H288.66V80.8125H293.723ZM289.848 82.6875C289.848 82.2708 289.639 82.0625 289.223 82.0625C288.806 82.0625 288.598 82.2708 288.598 82.6875C288.598 83.1042 288.806 83.3125 289.223 83.3125C289.639 83.3125 289.848 83.1042 289.848 82.6875ZM289.848 95.3125C289.848 94.8958 289.639 94.6875 289.223 94.6875C288.806 94.6875 288.598 94.8958 288.598 95.3125C288.598 95.4792 288.639 95.6458 288.723 95.8125C288.848 95.9375 289.014 96 289.223 96C289.639 96 289.848 95.7708 289.848 95.3125ZM288.91 59.875C288.91 59.4583 288.702 59.25 288.285 59.25H278.535C277.452 59.25 276.535 59.625 275.785 60.375C275.077 61.0833 274.723 61.9792 274.723 63.0625V87.5625C274.723 87.9792 274.931 88.1875 275.348 88.1875C275.764 88.1875 275.973 87.9792 275.973 87.5625V63.0625C275.973 62.3542 276.223 61.75 276.723 61.25C277.223 60.75 277.827 60.5 278.535 60.5H288.285C288.702 60.5 288.91 60.2917 288.91 59.875ZM275.973 90.25C275.973 89.8333 275.764 89.625 275.348 89.625C274.931 89.625 274.723 89.8333 274.723 90.25C274.723 90.6667 274.931 90.875 275.348 90.875C275.764 90.875 275.973 90.6667 275.973 90.25Z" fill="black"/>
</svg>
