<svg width="14" height="14" viewBox="0 0 14 14" fill="none" xmlns="http://www.w3.org/2000/svg">
<path d="M13.22 9.32992L9.33 13.2199C9.18937 13.3604 8.99875 13.4393 8.8 13.4393C8.60125 13.4393 8.41063 13.3604 8.27 13.2199L1.76 6.70992C1.72121 6.67283 1.6912 6.62755 1.67217 6.57737C1.65314 6.52719 1.64556 6.4734 1.65 6.41992L2.24 2.57992C2.24688 2.49203 2.28491 2.40949 2.34724 2.34716C2.40958 2.28482 2.49212 2.24679 2.58 2.23992L6.42 1.64992C6.47348 1.64548 6.52728 1.65305 6.57745 1.67208C6.62763 1.69112 6.67292 1.72112 6.71 1.75992L13.22 8.26992C13.3605 8.41054 13.4393 8.60116 13.4393 8.79992C13.4393 8.99867 13.3605 9.18929 13.22 9.32992V9.32992Z" stroke="#CECECE" stroke-linecap="round" stroke-linejoin="round"/>
<path d="M4 4L0.5 0.5" stroke="#CECECE" stroke-linecap="round" stroke-linejoin="round"/>
</svg>
